<?xml version="1.0" encoding="UTF-8" standalone="no"?>
<!-- Created with Inkscape (http://www.inkscape.org/) -->
<svg
   xmlns:dc="http://purl.org/dc/elements/1.1/"
   xmlns:cc="http://web.resource.org/cc/"
   xmlns:rdf="http://www.w3.org/1999/02/22-rdf-syntax-ns#"
   xmlns:svg="http://www.w3.org/2000/svg"
   xmlns="http://www.w3.org/2000/svg"
   xmlns:xlink="http://www.w3.org/1999/xlink"
   xmlns:sodipodi="http://sodipodi.sourceforge.net/DTD/sodipodi-0.dtd"
   xmlns:inkscape="http://www.inkscape.org/namespaces/inkscape"
   width="210mm"
   height="297mm"
   id="svg2556"
   sodipodi:version="0.32"
   inkscape:version="0.45.1"
   sodipodi:docbase="/home/osiris/bal"
   sodipodi:docname="bal-iso.svg"
   inkscape:output_extension="org.inkscape.output.svg.inkscape">
  <defs
     id="defs2558">
    <linearGradient
       id="linearGradient5859">
      <stop
         style="stop-color:#8ab0af;stop-opacity:1;"
         offset="0"
         id="stop5861" />
      <stop
         style="stop-color:#8ab0af;stop-opacity:0;"
         offset="1"
         id="stop5863" />
    </linearGradient>
    <linearGradient
       inkscape:collect="always"
       xlink:href="#linearGradient5859"
       id="linearGradient6131"
       gradientUnits="userSpaceOnUse"
       gradientTransform="matrix(-1,0,0,1,73686.45,-11033.66)"
       x1="30771.037"
       y1="110166.15"
       x2="42915.41"
       y2="110166.15" />
  </defs>
  <sodipodi:namedview
     id="base"
     pagecolor="#ffffff"
     bordercolor="#666666"
     borderopacity="1.0"
     inkscape:pageopacity="0.0"
     inkscape:pageshadow="2"
     inkscape:zoom="0.13925622"
     inkscape:cx="331.33003"
     inkscape:cy="783.87837"
     inkscape:document-units="px"
     inkscape:current-layer="layer1"
     inkscape:window-width="871"
     inkscape:window-height="590"
     inkscape:window-x="138"
     inkscape:window-y="74" />
  <metadata
     id="metadata2561">
    <rdf:RDF>
      <cc:Work
         rdf:about="">
        <dc:format>image/svg+xml</dc:format>
        <dc:type
           rdf:resource="http://purl.org/dc/dcmitype/StillImage" />
      </cc:Work>
    </rdf:RDF>
  </metadata>
  <g
     inkscape:label="Capa 1"
     inkscape:groupmode="layer"
     id="layer1">
    <g
       transform="matrix(4.2704296e-2,0,0,4.2704296e-2,-573.89853,-3728.833)"
       id="g2663"
       style="fill-rule:evenodd">
      <circle
         class="fil1"
         cx="22530"
         cy="107702"
         r="6817"
         id="circle2665"
         sodipodi:cx="22530"
         sodipodi:cy="107702"
         sodipodi:rx="6817"
         sodipodi:ry="6817"
         style="fill:#1f1a17"
         transform="matrix(1.013483,0,0,1.013483,-520.4926,-12774.96)" />
      <path
         class="fil0 str0"
         d="M 18743.272,93167.152 L 18484.272,93167.152 L 18484.272,92908.152 L 18743.272,92908.152 L 18743.272,93167.152 z M 17008.272,92566.152 C 16992.272,92625.152 16978.272,92685.152 16968.272,92745.152 L 16968.272,92745.152 C 16966.272,92757.152 16964.272,92769.152 16962.272,92782.152 C 16952.272,92859.152 16946.272,92937.152 16946.272,93017.152 L 16946.272,93019.152 L 16946.272,93019.152 C 16946.272,93478.152 17133.272,93895.152 17435.272,94197.152 C 17540.272,94302.152 17659.272,94393.152 17788.272,94467.152 L 17855.272,93130.152 L 18613.272,91872.152 L 19353.272,93130.152 L 19419.272,94478.152 C 19556.272,94402.152 19681.272,94307.152 19792.272,94197.152 C 20094.272,93895.152 20281.272,93478.152 20281.272,93019.152 L 20281.272,93019.152 L 20281.272,93018.152 C 20281.272,92559.152 20094.272,92142.152 19792.272,91841.152 C 19490.272,91538.152 19073.272,91351.152 18614.272,91351.152 L 18613.272,91351.152 C 18458.272,91351.152 18308.272,91372.152 18167.272,91412.152 C 18139.272,91419.152 18112.272,91428.152 18084.272,91437.152 C 18061.272,91445.152 18036.272,91454.152 18011.272,91464.152 L 18011.272,91464.152 C 17902.272,91559.152 17796.272,91658.152 17694.272,91760.152 C 17445.272,92010.152 17215.272,92279.152 17008.272,92566.152 L 17008.272,92566.152 z M 18216.272,91291.152 C 18344.272,91262.152 18477.272,91246.152 18613.272,91246.152 L 18614.272,91246.152 C 19102.272,91246.152 19545.272,91445.152 19866.272,91766.152 C 20187.272,92087.152 20386.272,92530.152 20386.272,93018.152 L 20386.272,93019.152 L 20386.272,93019.152 C 20386.272,93507.152 20187.272,93950.152 19866.272,94271.152 C 19737.272,94400.152 19588.272,94509.152 19424.272,94594.152 L 19475.272,95639.152 C 19889.272,95502.152 20261.272,95270.152 20563.272,94968.152 C 21062.272,94468.152 21372.272,93779.152 21372.272,93019.152 L 21372.272,93019.152 C 21372.272,92167.152 20982.272,91402.152 20372.272,90896.152 C 20253.272,90797.152 20125.272,90708.152 19992.272,90630.152 C 19864.272,90556.152 19729.272,90492.152 19589.272,90438.152 C 19095.272,90666.152 18635.272,90953.152 18216.272,91291.152 z M 17783.272,94584.152 C 17627.272,94500.152 17485.272,94395.152 17361.272,94271.152 C 17040.272,93950.152 16841.272,93507.152 16841.272,93019.152 L 16841.272,93019.152 L 16841.272,93017.152 C 16841.272,92939.152 16846.272,92862.152 16856.272,92786.152 L 16856.272,92786.152 C 16560.272,93234.152 16318.272,93720.152 16138.272,94235.152 L 16138.272,94235.152 C 16388.272,94741.152 16789.272,95161.152 17282.272,95434.152 C 17379.272,95487.152 17479.272,95535.152 17583.272,95578.152 C 17632.272,95597.152 17681.272,95615.152 17730.272,95632.152 L 17783.272,94584.152 z M 16092.272,94373.152 C 16353.272,94857.152 16750.272,95259.152 17231.272,95525.152 C 17333.272,95581.152 17437.272,95631.152 17544.272,95675.152 C 17603.272,95699.152 17664.272,95721.152 17725.272,95741.152 L 17673.272,96771.152 C 17459.272,96718.152 17252.272,96646.152 17054.272,96558.152 C 16976.272,96523.152 16899.272,96486.152 16825.272,96447.152 L 16825.272,96447.152 C 16446.272,96249.152 16105.272,95989.152 15813.272,95683.152 C 15861.272,95231.152 15956.272,94793.152 16092.272,94373.152 z M 19481.272,95748.152 C 19922.272,95607.152 20317.272,95362.152 20637.272,95042.152 C 21155.272,94524.152 21477.272,93808.152 21477.272,93019.152 L 21477.272,93019.152 C 21477.272,92134.152 21073.272,91341.152 20439.272,90815.152 C 20316.272,90713.152 20184.272,90621.152 20044.272,90540.152 C 19941.272,90480.152 19833.272,90426.152 19722.272,90379.152 C 20128.272,90203.152 20555.272,90066.152 20998.272,89975.152 L 20998.272,89976.152 C 21118.272,90071.152 21234.272,90173.152 21343.272,90282.152 C 21457.272,90396.152 21565.272,90517.152 21664.272,90645.152 C 22176.272,91300.152 22482.272,92125.152 22482.272,93019.152 L 22482.272,93019.152 C 22482.272,94084.152 22047.272,95051.152 21347.272,95752.152 C 20854.272,96245.152 20229.272,96606.152 19531.272,96777.152 L 19481.272,95748.152 z M 21132.272,89949.152 C 21231.272,90031.152 21326.272,90117.152 21417.272,90207.152 C 21534.272,90324.152 21644.272,90449.152 21747.272,90580.152 C 22273.272,91254.152 22587.272,92101.152 22587.272,93019.152 L 22587.272,93019.152 C 22587.272,94113.152 22141.272,95107.152 21421.272,95826.152 C 20910.272,96337.152 20261.272,96710.152 19536.272,96884.152 L 19586.272,97920.152 C 20573.272,97724.152 21458.272,97236.152 22144.272,96549.152 C 23049.272,95644.152 23610.272,94395.152 23610.272,93019.152 L 23610.272,93019.152 C 23610.272,92146.152 23385.272,91324.152 22989.272,90609.152 C 22912.272,90470.152 22828.272,90335.152 22738.272,90204.152 C 22654.272,90081.152 22563.272,89961.152 22467.272,89844.152 L 22467.272,89844.152 C 22416.272,89843.152 22365.272,89842.152 22313.272,89842.152 L 22313.272,89842.152 L 22312.272,89842.152 C 21909.272,89842.152 21515.272,89879.152 21132.272,89949.152 z M 17668.272,96878.152 C 17441.272,96822.152 17221.272,96747.152 17011.272,96654.152 C 16932.272,96619.152 16854.272,96581.152 16776.272,96540.152 L 16776.272,96540.152 C 16415.272,96350.152 16085.272,96106.152 15800.272,95819.152 C 15784.272,96004.152 15775.272,96191.152 15775.272,96379.152 L 15775.272,96379.152 L 15775.272,96380.152 C 15775.272,96644.152 15791.272,96904.152 15822.272,97160.152 L 15822.272,97159.152 C 16152.272,97383.152 16510.272,97568.152 16890.272,97708.152 C 16965.272,97736.152 17042.272,97762.152 17118.272,97786.152 C 17280.272,97838.152 17447.272,97881.152 17616.272,97915.152 L 17668.272,96878.152 z M 22605.272,89849.152 C 22681.272,89944.152 22755.272,90043.152 22825.272,90145.152 C 22916.272,90278.152 23001.272,90416.152 23080.272,90558.152 C 23484.272,91289.152 23715.272,92128.152 23715.272,93019.152 L 23715.272,93019.152 C 23715.272,94424.152 23142.272,95699.152 22218.272,96623.152 C 21514.272,97328.152 20605.272,97828.152 19591.272,98026.152 L 19638.272,98983.152 C 20895.272,98767.152 22022.272,98161.152 22889.272,97294.152 C 23985.272,96198.152 24665.272,94685.152 24665.272,93019.152 L 24665.272,93019.152 C 24665.272,92232.152 24513.272,91479.152 24238.272,90788.152 C 24184.272,90653.152 24126.272,90521.152 24063.272,90393.152 C 24004.272,90271.152 23941.272,90150.152 23872.272,90031.152 L 23872.272,90030.152 C 23859.272,90027.152 23846.272,90024.152 23833.272,90021.152 C 23436.272,89926.152 23026.272,89867.152 22605.272,89849.152 z M 17611.272,98021.152 C 17433.272,97985.152 17258.272,97940.152 17087.272,97886.152 C 17008.272,97861.152 16930.272,97835.152 16854.272,97806.152 C 16495.272,97674.152 16156.272,97502.152 15840.272,97297.152 C 15901.272,97726.152 16003.272,98143.152 16144.272,98542.152 L 16145.272,98542.152 C 16456.272,98682.152 16782.272,98796.152 17119.272,98882.152 C 17186.272,98900.152 17253.272,98916.152 17321.272,98930.152 C 17401.272,98948.152 17482.272,98964.152 17563.272,98978.152 L 17611.272,98021.152 z M 22313.272,89737.152 L 22313.272,89737.152 C 22865.272,89737.152 23401.272,89805.152 23914.272,89933.152 C 25102.272,90228.152 26166.272,90846.152 27006.272,91686.152 C 28209.272,92889.152 28955.272,94550.152 28955.272,96379.152 L 28955.272,96379.152 L 28955.272,96380.152 C 28955.272,98209.152 28209.272,99870.152 27006.272,101073.15 C 25803.272,102276.15 24143.272,103022.15 22314.272,103022.15 L 22313.272,103022.15 L 22313.272,103022.15 C 20483.272,103022.15 18823.272,102276.15 17620.272,101072.15 C 16417.272,99869.152 15671.272,98209.152 15671.272,96380.152 L 15671.272,96379.152 L 15671.272,96379.152 C 15671.272,94550.152 16417.272,92889.152 17620.272,91686.152 C 18823.272,90483.152 20483.272,89737.152 22312.272,89737.152 L 22313.272,89737.152 z M 16194.272,98678.152 C 16483.272,98802.152 16783.272,98905.152 17093.272,98984.152 C 17161.272,99001.152 17229.272,99018.152 17298.272,99033.152 C 17384.272,99052.152 17471.272,99068.152 17558.272,99084.152 L 17474.272,100767.15 C 16925.272,100163.15 16487.272,99455.152 16194.272,98678.152 z M 19643.272,99088.152 C 20927.272,98870.152 22078.272,98253.152 22963.272,97368.152 C 24078.272,96253.152 24769.272,94714.152 24769.272,93019.152 L 24769.272,93019.152 C 24769.272,92218.152 24615.272,91453.152 24335.272,90750.152 C 24281.272,90614.152 24222.272,90480.152 24157.272,90347.152 C 24111.272,90252.152 24063.272,90158.152 24013.272,90067.152 C 25132.272,90369.152 26134.272,90963.152 26932.272,91761.152 C 28116.272,92945.152 28850.272,94579.152 28850.272,96379.152 L 28850.272,96379.152 L 28850.272,96380.152 C 28850.272,98180.152 28116.272,99814.152 26932.272,100999.15 C 25748.272,102183.15 24114.272,102917.15 22314.272,102917.15 L 22313.272,102917.15 L 22313.272,102917.15 C 21425.272,102917.15 20578.272,102738.15 19805.272,102415.15 L 19643.272,99088.152 z "
         id="path2667"
         style="fill:#ffffff;stroke:#ffffff;stroke-width:76" />
    </g>
  </g>
</svg>
